<svg width="210" height="211" viewBox="0 0 210 211" fill="none" xmlns="http://www.w3.org/2000/svg">
<path d="M105.788 194.47C154.825 194.47 194.577 154.718 194.577 105.682C194.577 56.6455 154.825 16.8936 105.788 16.8936C56.7519 16.8936 17 56.6455 17 105.682C17 154.718 56.7519 194.47 105.788 194.47Z" fill="#FF6C5C"/>
<path d="M39.8543 117.611C37.3464 105.148 37.3696 92.383 43.4195 85.62C46.1215 67.0257 57.4632 52.3533 76.4848 42.9945C75.3835 37.6185 73.0112 28.1119 69.5753 25.344C61.2104 18.6042 68.7402 8.0476 76.2541 4.20152C82.9499 0.771788 93.0901 -0.646987 105.788 3.7522C118.486 -0.646987 128.627 0.771788 135.323 4.20152C142.924 8.09278 150.276 18.6774 142.001 25.344C138.566 28.1119 136.193 37.6185 135.092 42.9945C154.12 52.3557 165.462 67.0343 168.16 85.6371C169.276 86.9106 170.256 88.4576 171.056 90.2927C173.549 96.0154 174.28 104.971 171.724 117.612C186.833 151.151 166.173 184.125 135.225 200.801C111.564 213.551 100.013 213.551 76.3518 200.801C45.4024 184.124 24.7422 151.15 39.8543 117.611Z" fill="#3D1D08"/>
<path d="M163.103 103.037C163.095 97.2193 161.322 87.8886 154.64 92.7005C157.698 95.8933 160.587 99.5135 163.103 103.037Z" fill="#FFCABD"/>
<path d="M126.342 35.7712C115.114 30.8531 96.4625 30.8531 85.2344 35.7712C85.4993 36.7687 85.7411 37.7516 85.9633 38.7052C97.5345 34.7663 114.042 34.7663 125.613 38.7052C125.836 37.7516 126.077 36.7687 126.342 35.7712Z" fill="#F75C4C"/>
<path d="M81.9267 26.0351C95.6005 20.4015 115.976 20.4015 129.65 26.0338C131.152 22.6298 132.984 19.6213 135.204 17.6689C132.916 8.73869 113.672 11.691 107.615 14.0133H103.962C97.9045 11.691 78.6606 8.73869 76.3725 17.6689C78.5922 19.6213 80.4249 22.6298 81.9267 26.0351Z" fill="#6F390A"/>
<path d="M54.8392 81.2013C58.3605 81.6152 61.8123 83.3722 64.7695 85.9338C67.9892 83.7837 71.2065 82.4967 74.2101 82.6079C86.4321 83.0596 89.0779 95.0777 105.788 95.0777C122.499 95.0777 125.144 83.0596 137.366 82.6079C140.368 82.4967 143.582 83.7812 146.798 85.9289C149.916 83.2245 153.378 81.6311 156.747 81.2355C152.861 67.6191 142.674 57.3666 127.285 50.6707L123.65 49.0883L123.683 48.8808C114.114 45.0652 97.4624 45.0652 87.8936 48.8808L87.9265 49.0883L84.2917 50.6707C68.9147 57.3605 58.7329 67.602 54.8392 81.2013Z" fill="#6F390A"/>
<path d="M56.937 92.7005C50.2546 87.8886 48.4817 97.2193 48.4731 103.037C50.9884 99.5123 53.8784 95.8946 56.937 92.7005Z" fill="#FFCABD"/>
<path d="M130.583 191.569C157.464 176.928 176.627 148.157 160.565 118.348C156.79 111.342 151.735 104.455 146.846 99.4671C142.875 95.4135 139.431 92.7786 137.634 92.8445C130.925 93.0924 125.375 105.356 105.695 105.356C86.0136 105.356 80.4642 93.0924 73.755 92.8445C71.9577 92.7786 68.5145 95.4135 64.5427 99.4671C56.2193 107.96 47.6419 121.024 45.5626 133.311C41.3172 158.394 59.7723 180.268 81.1162 191.768C100.968 202.465 110.779 202.358 130.583 191.569Z" fill="#FFCABD"/>
<path d="M105.788 150.746C88.4248 150.746 92.5761 139.197 92.5859 139.17C89.2868 142.933 87.7056 156.455 105.788 156.455C123.871 156.455 122.29 142.933 118.991 139.17C119 139.197 123.152 150.746 105.788 150.746Z" fill="#3D1D08"/>
<path d="M128.302 158.252C124.728 172.275 86.8485 172.275 83.2747 158.252C85.2294 180.209 126.347 180.209 128.302 158.252Z" fill="#3D1D08"/>
<path d="M158.119 167.085C158.119 167.085 142.857 187.89 105.788 187.89C68.7194 187.89 53.4572 167.085 53.4572 167.085C59.9882 177.046 69.7841 185.516 80.8999 191.569C90.8789 197.005 98.3208 199.729 105.788 199.727C113.256 199.729 120.698 197.005 130.677 191.569C141.793 185.516 151.588 177.046 158.119 167.085Z" fill="#D28F7D"/>
<path d="M97.9643 126.734C97.9643 126.734 93.4857 145.719 105.788 145.719C118.091 145.719 113.612 126.734 113.612 126.734L118.991 139.17C119.001 139.197 123.152 150.746 105.788 150.746C88.4248 150.746 92.5761 139.197 92.5859 139.17L97.9643 126.734Z" fill="#D28F7D"/>
<path d="M105.788 110.066C86.1074 110.066 80.5581 97.8029 73.8488 97.5551C72.0515 97.4891 68.6083 100.124 64.6365 104.178C59.7477 109.165 54.6929 116.053 50.9176 123.06C47.2962 129.782 45.4647 136.451 45.1106 142.917C44.676 135.002 46.4085 126.717 50.9176 118.348C54.6929 111.342 59.7477 104.455 64.6365 99.4671C68.6083 95.4135 72.0515 92.7786 73.8488 92.8445C80.5581 93.0924 86.1074 105.356 105.788 105.356C125.469 105.356 131.019 93.0924 137.728 92.8445C139.525 92.7786 142.968 95.4135 146.94 99.4671C151.829 104.455 156.884 111.342 160.659 118.348C165.168 126.717 166.901 135.002 166.466 142.917C166.112 136.451 164.281 129.782 160.659 123.06C156.884 116.053 151.829 109.165 146.94 104.178C142.968 100.124 139.525 97.4891 137.728 97.5551C131.019 97.8029 125.469 110.066 105.788 110.066Z" fill="#D28F7D"/>
<path d="M133.084 53.4973C148.155 68.4787 133.511 88.0351 105.788 82.0401C78.066 88.0351 63.4215 68.4787 78.4921 53.4973C66.3324 60.1211 58.2043 69.4103 54.8295 81.2355C58.1982 81.6311 61.6609 83.2245 64.7781 85.9289C67.9941 83.7812 71.209 82.4968 74.2101 82.6079C86.4321 83.0596 89.078 95.0777 105.788 95.0777C122.499 95.0777 125.144 83.0596 137.366 82.6079C140.368 82.4968 143.582 83.7812 146.798 85.9289C149.916 83.2245 153.378 81.6311 156.747 81.2355C153.372 69.4103 145.244 60.1211 133.084 53.4973Z" fill="#5C2F08"/>
<path d="M125.412 130.01C125.427 130.018 141.28 129.956 146.352 117.83C148.653 132.096 133.406 136.812 125.412 130.01Z" fill="#3D1D08"/>
<path d="M87.2982 130.01C87.2817 130.018 70.7946 129.956 65.5201 117.83C63.1275 132.096 78.9837 136.812 87.2982 130.01Z" fill="#3D1D08"/>
</svg>
