<svg width="307" height="307" viewBox="0 0 307 307" fill="none" xmlns="http://www.w3.org/2000/svg">
<g filter="url(#filter0_di_7_34897)">
<path d="M153.555 213.109C208.537 213.109 253.109 168.537 253.109 113.555C253.109 58.5721 208.537 14 153.555 14C98.5721 14 54 58.5721 54 113.555C54 168.537 98.5721 213.109 153.555 213.109Z" fill="#FF6C5C"/>
</g>
<path d="M94.799 122.889C92.6137 112.03 92.6339 100.906 97.9056 95.0132C100.26 78.8107 110.143 66.0256 126.718 57.8706C125.758 53.1861 123.691 44.9024 120.697 42.4905C113.408 36.6177 119.969 27.419 126.517 24.0676C132.351 21.0791 141.187 19.8428 152.252 23.6761C163.317 19.8428 172.153 21.0791 177.987 24.0676C184.611 27.4583 191.017 36.6815 183.807 42.4905C180.813 44.9024 178.746 53.1861 177.786 57.8706C194.366 66.0277 204.25 78.8182 206.6 95.0281C207.573 96.1378 208.427 97.4858 209.124 99.0848C211.296 104.071 211.934 111.875 209.706 122.89C222.872 152.115 204.869 180.847 177.902 195.378C157.284 206.488 147.22 206.488 126.602 195.378C99.6335 180.846 81.6308 152.114 94.799 122.889Z" fill="#3D1D08"/>
<path d="M202.195 110.19C202.188 105.12 200.643 96.9899 194.82 101.183C197.485 103.965 200.002 107.12 202.195 110.19Z" fill="#FFCABD"/>
<path d="M170.162 51.5763C160.378 47.2908 144.126 47.2908 134.342 51.5763C134.573 52.4455 134.784 53.302 134.977 54.1329C145.06 50.7007 159.444 50.7007 169.527 54.1329C169.721 53.302 169.931 52.4455 170.162 51.5763Z" fill="#F75C4C"/>
<path d="M131.46 43.0927C143.375 38.1838 161.13 38.1838 173.045 43.0916C174.353 40.1254 175.95 37.5039 177.884 35.8027C175.891 28.0212 159.122 30.5937 153.844 32.6173H150.661C145.383 30.5937 128.614 28.0212 126.62 35.8027C128.555 37.5039 130.152 40.1254 131.46 43.0927Z" fill="#6F390A"/>
<path d="M107.857 91.163C110.925 91.5237 113.933 93.0546 116.51 95.2868C119.315 93.4132 122.119 92.2918 124.736 92.3886C135.386 92.7823 137.691 103.254 152.252 103.254C166.813 103.254 169.118 92.7823 179.768 92.3886C182.383 92.2918 185.185 93.4111 187.987 95.2825C190.703 92.9259 193.721 91.5375 196.656 91.1928C193.269 79.3279 184.393 70.3942 170.983 64.5596L167.816 63.1807L167.845 62.9999C159.507 59.6751 144.997 59.6751 136.659 62.9999L136.688 63.1807L133.521 64.5596C120.122 70.3888 111.25 79.313 107.857 91.163Z" fill="#6F390A"/>
<path d="M109.685 101.183C103.862 96.9899 102.317 105.12 102.31 110.19C104.501 107.118 107.02 103.966 109.685 101.183Z" fill="#FFCABD"/>
<path d="M173.857 187.334C197.281 174.576 213.979 149.506 199.983 123.532C196.693 117.427 192.289 111.425 188.029 107.079C184.568 103.547 181.567 101.251 180.001 101.308C174.155 101.524 169.32 112.21 152.17 112.21C135.021 112.21 130.185 101.524 124.339 101.308C122.773 101.251 119.773 103.547 116.312 107.079C109.059 114.48 101.585 125.863 99.7731 136.57C96.0738 158.426 112.155 177.486 130.753 187.507C148.052 196.828 156.6 196.735 173.857 187.334Z" fill="#FFCABD"/>
<path d="M152.252 151.762C137.122 151.762 140.74 141.698 140.748 141.675C137.873 144.954 136.496 156.737 152.252 156.737C168.009 156.737 166.631 144.954 163.756 141.675C163.765 141.698 167.382 151.762 152.252 151.762Z" fill="#3D1D08"/>
<path d="M171.87 158.303C168.756 170.522 135.749 170.522 132.634 158.303C134.338 177.436 170.166 177.436 171.87 158.303Z" fill="#3D1D08"/>
<path d="M197.852 165.999C197.852 165.999 184.553 184.129 152.252 184.129C119.952 184.129 106.653 165.999 106.653 165.999C112.343 174.679 120.879 182.059 130.565 187.334C139.261 192.071 145.745 194.444 152.252 194.442C158.759 194.444 165.244 192.071 173.939 187.334C183.625 182.059 192.161 174.679 197.852 165.999Z" fill="#D28F7D"/>
<path d="M145.435 130.839C145.435 130.839 141.532 147.382 152.253 147.382C162.973 147.382 159.07 130.839 159.07 130.839L163.757 141.675C163.765 141.698 167.383 151.762 152.253 151.762C137.123 151.762 140.74 141.698 140.748 141.675L145.435 130.839Z" fill="#D28F7D"/>
<path d="M152.252 116.315C135.103 116.315 130.268 105.629 124.421 105.413C122.855 105.355 119.855 107.651 116.394 111.184C112.134 115.53 107.729 121.531 104.44 127.637C101.284 133.494 99.6882 139.305 99.3797 144.94C99.0009 138.043 100.511 130.824 104.44 123.532C107.729 117.427 112.134 111.425 116.394 107.079C119.855 103.547 122.855 101.251 124.421 101.308C130.268 101.524 135.103 112.21 152.252 112.21C169.402 112.21 174.237 101.524 180.084 101.308C181.65 101.251 184.65 103.547 188.111 107.079C192.371 111.425 196.775 117.427 200.065 123.532C203.994 130.824 205.504 138.043 205.125 144.94C204.817 139.305 203.221 133.494 200.065 127.637C196.775 121.531 192.371 115.53 188.111 111.184C184.65 107.651 181.65 105.355 180.084 105.413C174.237 105.629 169.402 116.315 152.252 116.315Z" fill="#D28F7D"/>
<path d="M176.037 67.0223C189.169 80.0766 176.409 97.1175 152.252 91.8936C128.096 97.1175 115.335 80.0766 128.467 67.0223C117.871 72.7941 110.789 80.8884 107.848 91.1925C110.784 91.5372 113.801 92.9256 116.517 95.2822C119.319 93.4108 122.121 92.2915 124.736 92.3883C135.386 92.782 137.691 103.254 152.252 103.254C166.813 103.254 169.119 92.782 179.768 92.3883C182.384 92.2915 185.185 93.4108 187.987 95.2822C190.703 92.9256 193.721 91.5372 196.656 91.1925C193.715 80.8884 186.633 72.7941 176.037 67.0223Z" fill="#5C2F08"/>
<path d="M169.351 133.693C169.365 133.7 183.179 133.646 187.598 123.08C189.603 135.51 176.317 139.62 169.351 133.693Z" fill="#3D1D08"/>
<path d="M136.141 133.693C136.127 133.7 121.76 133.646 117.164 123.08C115.079 135.51 128.896 139.62 136.141 133.693Z" fill="#3D1D08"/>
<path d="M97.9595 256.077C97.9595 260.598 96.4028 264.309 93.2894 267.208C90.1773 270.108 85.7051 271.557 79.8754 271.557C74.0457 271.557 69.9441 270.71 67.5719 269.014C65.201 267.319 64.0148 265.44 64.0148 263.375C64.0148 261.508 64.2619 260.157 64.756 259.32C65.5955 257.896 66.411 256.937 67.2013 256.446C69.9441 258.474 76.2805 262.122 79.5048 262.122C80.8901 262.122 82.8691 261.913 83.2106 260.979C83.7426 259.523 83.0632 258.246 81.3578 257.147C75.8331 253.585 69.8546 252.439 66.0165 246.642C61.9351 240.479 64.4422 232.419 70.0185 228.14C70.1168 225.781 71.5374 223.669 74.2802 221.801C77.0217 219.934 80.7893 219 85.5816 219C94.3772 219 98.775 222.661 98.775 229.983C98.775 234.455 96.7986 237.502 92.8457 239.124C90.1282 236.175 85.0636 234.013 77.652 232.636C78.199 240.528 87.6135 241.696 94.105 247.231C96.6751 249.443 97.9595 252.391 97.9595 256.077ZM101.442 245.242C101.442 237.248 103.811 231.589 103.814 231.53L102.554 225.929C102.901 224.897 103.74 223.889 105.074 222.906C107.906 220.878 115.886 220.744 118.525 222.906C119.786 223.938 120.416 225.438 120.416 227.403C120.416 228.435 119.995 231.015 119.156 235.143C117.792 241.848 117.091 253.017 119.341 259.1C120.304 261.705 121.663 263.006 123.417 263.006C128.44 263.006 129.236 253.332 129.236 248.19C129.236 241.115 128.13 230.96 125.974 225.339L124.936 222.538C124.877 222.204 126.14 220.904 126.715 220.548C127.901 219.86 129.458 219.515 131.385 219.515C139.538 219.515 143.614 226.789 143.614 241.335C143.614 251.595 141.978 262.043 134.239 268.056C130.853 270.685 126.542 272 121.305 272C114.438 272 109.41 269.592 106.223 264.775C103.037 259.96 101.442 253.448 101.442 245.242ZM149.469 220.437C151.482 219.59 157.236 218.465 159.103 220.178C159.893 219.884 160.956 219.737 162.29 219.737C165.106 219.737 166.959 221.089 167.848 223.792C168.837 226.936 170.492 236.544 172.814 252.613C175.483 237.33 177.261 228.177 178.15 225.154C179.04 222.133 180.226 220.351 181.708 219.81C182.696 219.515 183.906 219.491 185.34 219.737C186.624 219.443 187.983 219.295 189.416 219.295C196.093 219.295 198.087 220.948 198.087 227.477C198.087 227.575 197.765 233.423 197.124 245.021C196.481 256.617 196.159 264.997 196.159 270.157C194.283 271.091 191.837 271.557 188.823 271.557C185.81 271.557 184.253 270.058 184.153 267.061L183.561 239.861C179.953 258.977 176.446 268.535 173.036 268.535C171.09 268.535 169.875 268.521 168.293 266.397C165.971 263.351 163.426 254.333 160.659 239.345C159.918 251.777 159.548 262.048 159.548 270.157C156.017 271.913 148.624 272.901 148.357 267.061L146.504 222.538C146.63 221.951 148.716 220.753 149.469 220.437ZM201.051 248.854C201.051 242.195 202.503 234.685 206.461 229.983C209.575 226.249 212.885 223.963 216.393 223.127C218.419 220.572 221.433 219.295 225.435 219.295C230.92 219.295 235.218 221.383 238.331 225.56C241.443 229.738 243 235.991 243 244.32C243 252.65 240.9 259.284 236.7 264.222C232.5 269.162 227.25 271.631 220.952 271.631C207.185 271.631 201.051 262.557 201.051 248.854ZM222.841 263.006C228.061 263.006 228.845 253.594 228.845 248.411C228.845 243.693 227.819 239.934 225.768 237.133C223.718 234.332 221.284 232.268 218.469 230.941C217.233 235.659 216.616 240.745 216.616 246.2C216.616 257.405 218.69 263.006 222.841 263.006Z" fill="#3D1D08"/>
<defs>
<filter id="filter0_di_7_34897" x="52" y="13" width="203.109" height="203.109" filterUnits="userSpaceOnUse" color-interpolation-filters="sRGB">
<feFlood flood-opacity="0" result="BackgroundImageFix"/>
<feColorMatrix in="SourceAlpha" type="matrix" values="0 0 0 0 0 0 0 0 0 0 0 0 0 0 0 0 0 0 127 0" result="hardAlpha"/>
<feOffset dy="1"/>
<feGaussianBlur stdDeviation="1"/>
<feComposite in2="hardAlpha" operator="out"/>
<feColorMatrix type="matrix" values="0 0 0 0 0 0 0 0 0 0 0 0 0 0 0 0 0 0 0.25 0"/>
<feBlend mode="normal" in2="BackgroundImageFix" result="effect1_dropShadow_7_34897"/>
<feBlend mode="normal" in="SourceGraphic" in2="effect1_dropShadow_7_34897" result="shape"/>
<feColorMatrix in="SourceAlpha" type="matrix" values="0 0 0 0 0 0 0 0 0 0 0 0 0 0 0 0 0 0 127 0" result="hardAlpha"/>
<feOffset dy="1"/>
<feGaussianBlur stdDeviation="1"/>
<feComposite in2="hardAlpha" operator="arithmetic" k2="-1" k3="1"/>
<feColorMatrix type="matrix" values="0 0 0 0 1 0 0 0 0 1 0 0 0 0 1 0 0 0 0.5 0"/>
<feBlend mode="normal" in2="shape" result="effect2_innerShadow_7_34897"/>
</filter>
</defs>
</svg>
