<svg width="431" height="171" viewBox="0 0 431 171" fill="none" xmlns="http://www.w3.org/2000/svg">
<path d="M72.5 157.978C112.541 157.978 145 125.519 145 85.4779C145 45.4373 112.541 12.9779 72.5 12.9779C32.4594 12.9779 7.62939e-06 45.4373 7.62939e-06 85.4779C7.62939e-06 125.519 32.4594 157.978 72.5 157.978Z" fill="#FF6C5C"/>
<path d="M18.6616 95.2185C16.6138 85.0422 16.6327 74.6187 21.5728 69.0964C23.7792 53.9132 33.0402 41.9324 48.5723 34.2905C47.673 29.9008 45.7358 22.1382 42.9303 19.878C36.0999 14.3747 42.2484 5.75471 48.3838 2.6142C53.8513 -0.186346 62.1313 -1.34485 72.5 2.2473C82.8687 -1.34485 91.1487 -0.186346 96.6161 2.6142C102.823 5.7916 108.826 14.4345 102.07 19.878C99.2642 22.1382 97.327 29.9008 96.4277 34.2905C111.965 41.9344 121.227 53.9202 123.429 69.1103C124.34 70.1502 125.141 71.4134 125.794 72.9119C127.83 77.5847 128.427 84.8977 126.339 95.2195C138.677 122.606 121.807 149.53 96.5364 163.147C77.2158 173.558 67.7842 173.558 48.4636 163.147C23.1919 149.529 6.32189 122.605 18.6616 95.2185Z" fill="#3D1D08"/>
<path d="M119.301 83.3184C119.294 78.5678 117.846 70.9488 112.389 74.8779C114.887 77.4851 117.246 80.4411 119.301 83.3184Z" fill="#FFCABD"/>
<path d="M89.2833 28.3923C80.115 24.3765 64.885 24.3765 55.7167 28.3923C55.933 29.2069 56.1304 30.0095 56.3119 30.7881C65.7603 27.5718 79.2396 27.5718 88.6881 30.7881C88.8696 30.0095 89.067 29.2069 89.2833 28.3923Z" fill="#F75C4C"/>
<path d="M53.0158 20.4424C64.1811 15.8422 80.8189 15.8422 91.9841 20.4414C93.2104 17.6617 94.7069 15.2052 96.5194 13.611C94.6511 6.31901 78.9375 8.72973 73.9915 10.626H71.0085C66.0624 8.72973 50.3489 6.31901 48.4805 13.611C50.2931 15.2052 51.7895 17.6618 53.0158 20.4424Z" fill="#6F390A"/>
<path d="M30.8976 65.4883C33.7729 65.8263 36.5914 67.2609 39.0061 69.3526C41.6352 67.5969 44.2623 66.5461 46.7148 66.6368C56.6947 67.0057 58.8552 76.8191 72.5 76.8191C86.1447 76.8191 88.3052 67.0057 98.2851 66.6368C100.736 66.5461 103.361 67.5949 105.987 69.3486C108.532 67.1403 111.36 65.8392 114.11 65.5162C110.937 54.3978 102.619 46.0261 90.0529 40.5586L87.0849 39.2665L87.1118 39.097C79.2984 35.9814 65.7015 35.9814 57.8881 39.097L57.915 39.2665L54.947 40.5586C42.3909 46.0211 34.077 54.3838 30.8976 65.4883Z" fill="#6F390A"/>
<path d="M32.6105 74.8779C27.154 70.9488 25.7063 78.5678 25.6994 83.3184C27.7532 80.4401 30.113 77.4861 32.6105 74.8779Z" fill="#FFCABD"/>
<path d="M92.7461 155.609C114.696 143.654 130.343 120.161 117.228 95.8207C114.145 90.0999 110.018 84.4759 106.026 80.4032C102.783 77.0932 99.9713 74.9417 98.5037 74.9956C93.0252 75.1979 88.4939 85.2117 72.4235 85.2117C56.353 85.2117 51.8217 75.1979 46.3432 74.9956C44.8757 74.9417 42.0642 77.0932 38.821 80.4032C32.0245 87.3383 25.0206 98.0051 23.3228 108.039C19.8562 128.52 34.9257 146.381 52.3541 155.772C68.5641 164.506 76.5749 164.418 92.7461 155.609Z" fill="#FFCABD"/>
<path d="M72.5 122.275C58.3218 122.275 61.7116 112.844 61.7195 112.822C59.0257 115.895 57.7346 126.937 72.5 126.937C87.2654 126.937 85.9743 115.895 83.2804 112.822C83.2884 112.844 86.6782 122.275 72.5 122.275Z" fill="#3D1D08"/>
<path d="M90.8835 128.404C87.9653 139.855 57.0347 139.855 54.1165 128.404C55.7127 146.333 89.2873 146.333 90.8835 128.404Z" fill="#3D1D08"/>
<path d="M115.231 135.616C115.231 135.616 102.769 152.605 72.5 152.605C42.2314 152.605 29.7691 135.616 29.7691 135.616C35.102 143.75 43.1008 150.666 52.1774 155.609C60.3258 160.048 66.4024 162.272 72.5 162.27C78.5976 162.272 84.6742 160.048 92.8226 155.609C101.899 150.666 109.898 143.75 115.231 135.616Z" fill="#D28F7D"/>
<path d="M66.1113 102.668C66.1113 102.668 62.4543 118.17 72.5 118.17C82.5456 118.17 78.8887 102.668 78.8887 102.668L83.2804 112.822C83.2884 112.844 86.6781 122.275 72.5 122.275C58.3218 122.275 61.7116 112.844 61.7195 112.822L66.1113 102.668Z" fill="#D28F7D"/>
<path d="M72.5 89.0581C56.4296 89.0581 51.8983 79.0443 46.4198 78.8419C44.9522 78.7881 42.1407 80.9396 38.8975 84.2496C34.9056 88.3223 30.778 93.9463 27.6954 99.668C24.7383 105.156 23.2428 110.602 22.9537 115.882C22.5988 109.42 24.0135 102.654 27.6954 95.8207C30.778 90.0999 34.9056 84.4759 38.8975 80.4032C42.1407 77.0932 44.9522 74.9417 46.4198 74.9956C51.8983 75.1979 56.4296 85.2117 72.5 85.2117C88.5705 85.2117 93.1018 75.1979 98.5803 74.9956C100.048 74.9417 102.859 77.0932 106.103 80.4032C110.094 84.4759 114.222 90.0999 117.305 95.8207C120.987 102.654 122.401 109.42 122.046 115.882C121.757 110.602 120.262 105.156 117.305 99.668C114.222 93.9463 110.094 88.3223 106.103 84.2496C102.859 80.9396 100.048 78.7881 98.5803 78.8419C93.1018 79.0443 88.5705 89.0581 72.5 89.0581Z" fill="#D28F7D"/>
<path d="M94.7886 42.8666C107.094 55.0996 95.1366 71.0684 72.5 66.1732C49.8633 71.0684 37.9054 55.0996 50.2113 42.8666C40.2823 48.2752 33.6453 55.8603 30.8896 65.5162C33.6403 65.8392 36.4678 67.1403 39.0131 69.3486C41.6392 67.5949 44.2642 66.546 46.7148 66.6368C56.6947 67.0057 58.8552 76.819 72.5 76.819C86.1447 76.819 88.3052 67.0057 98.2851 66.6368C100.736 66.546 103.361 67.5949 105.987 69.3486C108.532 67.1403 111.36 65.8392 114.11 65.5162C111.355 55.8603 104.718 48.2752 94.7886 42.8666Z" fill="#5C2F08"/>
<path d="M88.5234 105.343C88.5363 105.349 101.481 105.299 105.622 95.3973C107.501 107.046 95.0515 110.897 88.5234 105.343Z" fill="#3D1D08"/>
<path d="M57.4019 105.343C57.3885 105.349 43.9259 105.299 39.6191 95.3973C37.6654 107.046 50.6127 110.897 57.4019 105.343Z" fill="#3D1D08"/>
<path d="M212.224 77.9656C212.224 84.7893 209.876 90.3905 205.18 94.7675C200.485 99.1444 193.74 101.332 184.946 101.332C176.153 101.332 169.966 100.053 166.388 97.4925C162.812 94.934 161.022 92.0974 161.022 88.9808C161.022 86.1631 161.395 84.1232 162.14 82.861C163.407 80.7113 164.637 79.2637 165.829 78.5219C169.966 81.5837 179.524 87.0904 184.387 87.0904C186.477 87.0904 189.462 86.7743 189.977 85.3645C190.779 83.1675 189.755 81.2393 187.182 79.5797C178.849 74.2036 169.831 72.474 164.042 63.7239C157.885 54.4212 161.667 42.2554 170.078 35.7969C170.226 32.2356 172.369 29.047 176.506 26.2274C180.642 23.4098 186.325 22 193.553 22C206.82 22 213.454 27.5256 213.454 38.5786C213.454 45.3286 210.473 49.927 204.51 52.3756C200.411 47.9249 192.772 44.6606 181.592 42.5828C182.417 54.495 196.618 56.2587 206.41 64.6133C210.286 67.9514 212.224 72.4021 212.224 77.9656ZM217.477 61.6101C217.477 49.5447 221.05 41.0027 221.055 40.9138L219.154 32.4589C219.677 30.9015 220.943 29.3801 222.955 27.8965C227.227 24.8347 239.264 24.6322 243.245 27.8965C245.146 29.4539 246.097 31.7171 246.097 34.6843C246.097 36.2417 245.462 40.1361 244.196 46.3675C242.139 56.4877 241.081 73.3464 244.475 82.5279C245.928 86.4602 247.977 88.4245 250.624 88.4245C258.2 88.4245 259.4 73.8213 259.4 66.0609C259.4 55.3806 257.733 40.0528 254.48 31.5676L252.915 27.3401C252.826 26.8368 254.731 24.8744 255.598 24.337C257.387 23.2981 259.735 22.7777 262.642 22.7777C274.939 22.7777 281.088 33.757 281.088 55.7137C281.088 71.2005 278.62 86.9711 266.946 96.0467C261.84 100.015 255.337 102 247.437 102C237.079 102 229.495 98.3648 224.689 91.0945C219.882 83.8261 217.477 73.9973 217.477 61.6101ZM289.92 24.1686C292.956 22.8913 301.635 21.192 304.451 23.7788C305.643 23.3341 307.246 23.1127 309.259 23.1127C313.507 23.1127 316.302 25.1526 317.642 29.2325C319.135 33.9784 321.631 48.4812 325.133 72.737C329.158 49.6677 331.841 35.8518 333.181 31.2894C334.523 26.7289 336.313 24.0399 338.548 23.2224C340.039 22.7777 341.864 22.7418 344.026 23.1127C345.963 22.668 348.013 22.4447 350.175 22.4447C360.246 22.4447 363.254 24.9407 363.254 34.7959C363.254 34.9435 362.769 43.7712 361.801 61.2771C360.831 78.7811 360.347 91.4294 360.347 99.2182C357.516 100.628 353.827 101.332 349.281 101.332C344.735 101.332 342.387 99.0688 342.237 94.5442L341.343 53.4883C335.902 82.3425 330.611 96.7696 325.468 96.7696C322.532 96.7696 320.699 96.7488 318.313 93.5432C314.811 88.9448 310.972 75.3333 306.799 52.7087C305.681 71.4749 305.122 86.9787 305.122 99.2182C299.797 101.869 288.646 103.361 288.243 94.5442L285.448 27.3401C285.638 26.4545 288.784 24.6455 289.92 24.1686ZM367.725 67.062C367.725 57.0118 369.916 45.6749 375.886 38.5786C380.582 32.9414 385.575 29.4917 390.866 28.2295C393.923 24.373 398.469 22.4447 404.506 22.4447C412.778 22.4447 419.261 25.5973 423.958 31.9025C428.652 38.2077 431 47.6467 431 60.2193C431 72.7919 427.832 82.8061 421.497 90.26C415.162 97.7158 407.243 101.444 397.743 101.444C376.977 101.444 367.725 87.747 367.725 67.062ZM400.593 88.4245C408.466 88.4245 409.649 74.2168 409.649 66.394C409.649 59.2731 408.101 53.598 405.008 49.3706C401.916 45.1431 398.245 42.0265 393.997 40.0244C392.134 47.1452 391.202 54.8224 391.202 63.0559C391.202 79.9695 394.332 88.4245 400.593 88.4245Z" fill="#5C2F08"/>
<path d="M427.199 138.749C427.199 138.022 427.428 137.326 427.885 136.661C428.466 136.495 428.882 136.412 429.131 136.412C429.525 136.412 429.93 136.495 430.346 136.661C430.782 137.326 431 138.053 431 138.842C431 139.611 430.782 140.379 430.346 141.147C430.013 141.314 429.65 141.397 429.255 141.397C428.861 141.397 428.404 141.314 427.885 141.147C427.428 140.337 427.199 139.538 427.199 138.749Z" fill="#FF6C5C"/>
<path d="M409.579 134.73C409.579 132.383 410.42 130.233 412.102 128.281C413.805 126.329 415.706 125.352 417.803 125.352C419.091 125.352 420.192 125.747 421.106 126.536C422.019 127.325 422.476 128.354 422.476 129.62C422.476 131.095 421.864 132.362 420.638 133.421C419.434 134.46 417.834 134.979 415.841 134.979C414.698 134.979 413.899 134.802 413.442 134.449C413.463 135.446 413.816 136.246 414.501 136.848C415.186 137.43 415.976 137.721 416.869 137.721C418.032 137.721 418.977 137.264 419.704 136.35C419.704 136.184 419.735 136.007 419.797 135.82C420.711 135.072 421.698 134.699 422.757 134.699C422.965 134.699 423.12 134.709 423.224 134.73C424.595 135.477 425.436 136.703 425.748 138.406C425.727 138.572 425.644 138.749 425.498 138.936C425.374 139.122 425.239 139.289 425.093 139.434C424.948 139.559 424.74 139.714 424.47 139.901C424.2 140.067 423.982 140.192 423.816 140.275C423.671 140.358 423.442 140.483 423.131 140.649C422.84 140.815 422.674 140.909 422.632 140.929C422.508 140.929 422.404 140.919 422.321 140.898C422.238 140.857 422.154 140.805 422.071 140.742C422.009 140.659 421.968 140.607 421.947 140.587C421.926 140.545 421.885 140.462 421.822 140.337C421.76 140.192 421.718 140.109 421.698 140.088C420.161 141.106 418.509 141.615 416.744 141.615C414.771 141.615 413.078 140.981 411.666 139.714C410.274 138.447 409.579 136.786 409.579 134.73ZM414.439 131.085C414.439 131.77 414.937 132.113 415.934 132.113C416.682 132.113 417.398 131.936 418.084 131.583C418.769 131.23 419.112 130.794 419.112 130.275C419.112 129.922 418.987 129.558 418.738 129.184C418.509 128.79 418.136 128.592 417.616 128.592C416.973 128.592 416.277 128.852 415.529 129.371C414.802 129.89 414.439 130.462 414.439 131.085Z" fill="#FF6C5C"/>
<path d="M395.873 126.443C395.873 125.986 395.936 125.695 396.06 125.57C396.434 125.508 396.922 125.477 397.524 125.477H398.21V119.62C399.29 119.537 399.986 119.495 400.297 119.495C400.609 119.495 401.242 119.537 402.198 119.62L402.509 125.539C404.794 125.643 406.102 125.788 406.435 125.975C406.746 126.515 406.902 127.346 406.902 128.468C406.902 128.925 406.84 129.215 406.715 129.34C406.071 129.423 405.334 129.465 404.503 129.465C404.233 129.465 403.828 129.465 403.288 129.465C402.748 129.444 402.343 129.434 402.073 129.434C402.073 130.119 402.063 130.981 402.042 132.019C402.042 133.058 402.042 133.795 402.042 134.231C402.042 135.851 402.146 136.848 402.353 137.222C402.582 137.575 403.184 137.752 404.16 137.752C404.534 137.752 404.846 137.731 405.095 137.689L404.908 137.035L407.774 136.381C407.982 136.983 408.086 137.689 408.086 138.499C408.086 139.849 407.951 140.701 407.681 141.054C405.645 141.345 403.953 141.49 402.603 141.49C400.837 141.49 399.674 141.241 399.113 140.742C398.864 140.514 398.667 140.213 398.521 139.839C398.376 139.465 398.272 138.936 398.21 138.25C398.168 137.544 398.137 136.848 398.116 136.163C398.096 135.457 398.064 134.439 398.023 133.11C397.981 131.78 397.929 130.524 397.867 129.34C397.203 129.278 396.694 129.143 396.341 128.935C396.029 128.395 395.873 127.564 395.873 126.443Z" fill="#FF6C5C"/>
<path d="M379.092 140.306C379.216 138.146 379.954 136.661 381.304 135.851C381.449 135.831 381.667 135.82 381.958 135.82C383.059 135.82 383.9 136.184 384.481 136.911C384.481 136.931 384.481 136.973 384.481 137.035C384.502 137.077 384.513 137.108 384.513 137.129C384.513 137.191 384.492 137.305 384.45 137.471C384.637 137.783 384.97 138.042 385.447 138.25C385.946 138.437 386.475 138.531 387.036 138.531C387.825 138.531 388.448 138.344 388.905 137.97C389.383 137.596 389.622 137.149 389.622 136.63C389.622 135.612 388.781 135.062 387.098 134.979C386.455 134.958 385.935 134.927 385.541 134.886C385.146 134.844 384.606 134.771 383.921 134.667C383.256 134.564 382.706 134.408 382.269 134.2C381.833 133.992 381.387 133.733 380.93 133.421C380.494 133.11 380.161 132.694 379.933 132.175C379.704 131.656 379.59 131.054 379.59 130.368C379.59 128.748 380.224 127.523 381.491 126.692C382.778 125.861 384.367 125.446 386.257 125.446C387.919 125.446 389.331 125.633 390.494 126.007C390.619 125.799 390.785 125.591 390.993 125.384C391.221 125.176 391.398 125.051 391.522 125.01C393.059 125.155 394.077 125.674 394.575 126.567C394.451 128.727 393.713 130.212 392.363 131.022C392.218 131.043 392 131.054 391.709 131.054C390.608 131.054 389.767 130.69 389.186 129.963C389.186 129.942 389.175 129.911 389.155 129.87C389.155 129.807 389.155 129.766 389.155 129.745C389.155 129.683 389.175 129.569 389.217 129.402C388.988 129.132 388.573 128.904 387.971 128.717C387.389 128.53 386.787 128.437 386.164 128.437C384.565 128.437 383.765 128.966 383.765 130.026C383.765 131.272 384.897 131.936 387.161 132.019C387.805 132.04 388.313 132.071 388.687 132.113C389.061 132.134 389.56 132.196 390.183 132.3C390.826 132.383 391.346 132.528 391.74 132.736C392.135 132.923 392.53 133.172 392.924 133.484C393.34 133.795 393.641 134.211 393.828 134.73C394.035 135.228 394.139 135.82 394.139 136.506C394.139 139.787 391.73 141.428 386.911 141.428C385.291 141.428 383.941 141.241 382.861 140.867C382.529 141.49 382.29 141.823 382.145 141.864C380.608 141.719 379.59 141.199 379.092 140.306Z" fill="#FF6C5C"/>
<path d="M359.868 134.792C359.868 133.297 360.086 131.853 360.522 130.462C360.979 129.049 361.696 127.834 362.672 126.817C363.669 125.799 364.832 125.29 366.161 125.29C366.764 125.29 367.293 125.394 367.75 125.602C368.228 125.809 368.591 126.069 368.841 126.38C369.111 126.671 369.329 126.972 369.495 127.284C369.661 127.575 369.775 127.824 369.837 128.032C369.9 128.239 369.941 128.343 369.962 128.343C369.962 127.222 369.952 126.484 369.931 126.131C370.346 125.778 370.772 125.55 371.208 125.446C371.665 125.321 372.288 125.259 373.078 125.259C373.701 125.259 374.251 125.28 374.729 125.321C375.227 125.363 375.601 125.415 375.85 125.477C376.099 125.539 376.297 125.602 376.442 125.664C376.608 125.726 376.712 125.768 376.754 125.789L376.816 125.82C376.899 126.007 376.941 126.588 376.941 127.564C376.941 128.561 376.899 129.153 376.816 129.34C376.754 129.485 376.421 129.62 375.819 129.745C375.217 129.849 374.698 129.901 374.261 129.901C374.054 129.901 373.825 129.88 373.576 129.839C373.638 129.963 373.669 130.493 373.669 131.427C373.669 134.148 373.576 135.654 373.389 135.945C373.534 135.882 373.711 135.851 373.919 135.851C374.833 135.851 375.726 135.945 376.598 136.132C376.764 136.256 376.847 137.139 376.847 138.78C376.847 139.694 376.816 140.275 376.754 140.524C376.608 140.753 376.151 140.971 375.383 141.179C374.614 141.386 373.742 141.49 372.766 141.49C371.001 141.49 369.91 141.449 369.495 141.366C369.349 140.971 369.277 140.639 369.277 140.369C369.277 140.202 369.308 140.078 369.37 139.995C369.121 140.078 368.415 140.389 367.252 140.929C366.089 141.469 365.247 141.739 364.728 141.739C363.129 141.739 361.914 141.064 361.083 139.714C360.273 138.364 359.868 136.724 359.868 134.792ZM363.762 133.982C363.762 135.145 364.116 136.132 364.822 136.942C365.549 137.731 366.307 138.126 367.096 138.126C367.532 138.126 368.031 138.011 368.591 137.783C369.152 137.554 369.453 137.347 369.495 137.16C369.557 136.204 369.609 135.332 369.651 134.543C369.713 133.733 369.754 133.12 369.775 132.705C369.817 132.269 369.837 131.988 369.837 131.864V131.49C369.837 131.054 369.547 130.628 368.965 130.212C368.404 129.776 367.771 129.558 367.065 129.558C366.026 129.558 365.216 130.036 364.635 130.991C364.053 131.926 363.762 132.923 363.762 133.982Z" fill="#FF6C5C"/>
<path d="M339.284 123.265C339.284 121.832 339.429 120.679 339.72 119.807C340.115 119.786 340.956 119.745 342.244 119.682C343.531 119.599 344.819 119.537 346.107 119.495C347.415 119.454 348.745 119.433 350.095 119.433C351.445 119.433 352.784 119.454 354.113 119.495C355.443 119.537 356.782 119.599 358.132 119.682C359.503 119.745 360.375 119.786 360.749 119.807C361.04 120.679 361.185 121.832 361.185 123.265C361.185 124.013 361.113 124.667 360.967 125.228C359.929 125.435 359.192 125.539 358.755 125.539C357.842 125.539 357.073 125.363 356.45 125.01L355.92 123.39C355.65 123.224 354.477 123.109 352.4 123.047C352.525 125.705 352.587 128.468 352.587 131.334C352.587 133.577 352.473 135.301 352.244 136.506C352.348 136.506 352.587 136.537 352.961 136.599C353.501 136.682 353.864 136.776 354.051 136.879C354.176 137.046 354.238 137.679 354.238 138.78C354.238 139.59 354.165 140.119 354.02 140.369C353.688 140.95 352.431 141.241 350.25 141.241C348.049 141.241 346.782 140.95 346.45 140.369C346.304 140.119 346.231 139.579 346.231 138.749C346.231 137.669 346.294 137.046 346.418 136.879C346.605 136.776 346.969 136.682 347.509 136.599C347.883 136.537 348.121 136.506 348.225 136.506C347.997 135.301 347.883 133.577 347.883 131.334C347.883 128.468 347.945 125.705 348.07 123.047C345.993 123.109 344.819 123.224 344.549 123.39L344.019 125.01C343.396 125.363 342.628 125.539 341.714 125.539C341.278 125.539 340.541 125.435 339.502 125.228C339.357 124.667 339.284 124.013 339.284 123.265Z" fill="#FF6C5C"/>
<path d="M327.591 138.749C327.591 138.022 327.82 137.326 328.277 136.661C328.858 136.495 329.274 136.412 329.523 136.412C329.918 136.412 330.323 136.495 330.738 136.661C331.174 137.326 331.392 138.053 331.392 138.842C331.392 139.611 331.174 140.379 330.738 141.147C330.406 141.314 330.042 141.397 329.648 141.397C329.253 141.397 328.796 141.314 328.277 141.147C327.82 140.337 327.591 139.538 327.591 138.749Z" fill="#FF6C5C"/>
<path d="M307.398 120.492C307.398 119.454 307.657 118.768 308.176 118.436C309.236 118.145 310.482 118 311.915 118C313.244 118 314.303 118.145 315.093 118.436C315.363 118.706 315.498 119.288 315.498 120.181C315.498 121.157 315.363 121.801 315.093 122.112C314.594 122.195 314.189 122.237 313.878 122.237C313.898 123.234 314.002 125.373 314.189 128.655C314.418 128.489 314.75 128.25 315.186 127.938C315.643 127.627 316.017 127.367 316.308 127.159C316.598 126.931 316.9 126.682 317.211 126.412C317.523 126.142 317.762 125.892 317.928 125.664C318.094 125.435 318.177 125.217 318.177 125.01C318.177 124.823 318.073 124.636 317.865 124.449C317.72 124.594 317.46 124.667 317.087 124.667C316.941 124.563 316.806 124.355 316.682 124.044C316.557 123.732 316.495 123.442 316.495 123.172C316.495 122.922 316.557 122.767 316.682 122.704C317.928 122.289 319.091 122.081 320.171 122.081C321.355 122.081 322.497 122.31 323.598 122.767C323.702 123.016 323.754 123.307 323.754 123.639C323.754 124.511 323.504 125.02 323.006 125.165C322.943 125.186 322.808 125.197 322.601 125.197C322.082 125.197 321.739 125.114 321.573 124.947C321.552 125.072 321.355 125.363 320.981 125.82C320.628 126.277 320.088 126.858 319.361 127.564C318.655 128.25 317.897 128.914 317.087 129.558C319.08 130.389 320.763 131.625 322.133 133.265C323.525 134.906 324.221 136.069 324.221 136.755C324.387 136.672 324.584 136.63 324.813 136.63C325 136.63 325.259 136.692 325.592 136.817C325.945 136.983 326.121 137.586 326.121 138.624C326.121 139.538 325.965 140.234 325.654 140.711C324.844 141.085 323.878 141.272 322.757 141.272C321.822 141.272 320.565 141.106 318.987 140.774C318.738 140.4 318.613 139.808 318.613 138.998C318.613 138.001 318.758 137.295 319.049 136.879C319.215 136.776 319.413 136.724 319.641 136.724C319.807 136.724 319.984 136.755 320.171 136.817C319.797 134.844 317.803 133.193 314.189 131.864C314.168 132.154 314.148 132.632 314.127 133.297C314.106 133.941 314.075 134.532 314.033 135.072C314.013 135.612 313.961 136.09 313.878 136.506C314.189 136.319 314.688 136.225 315.373 136.225C315.726 136.225 315.944 136.277 316.027 136.381C316.173 136.464 316.297 136.786 316.401 137.347C316.505 137.887 316.557 138.468 316.557 139.091C316.557 140.047 316.453 140.618 316.245 140.805C315.145 141.096 313.597 141.241 311.603 141.241C310.046 141.241 308.986 141.116 308.426 140.867C308.073 140.327 307.896 139.455 307.896 138.25C307.896 137.378 308.052 136.859 308.363 136.692C308.654 136.485 309.111 136.381 309.734 136.381C309.9 136.381 310.046 136.402 310.17 136.443C310.15 134.823 310.118 133.214 310.077 131.614C310.056 129.994 310.035 128.748 310.015 127.876C309.994 127.004 309.983 126.266 309.983 125.664C309.983 125.062 310.004 123.909 310.046 122.206C309.672 122.372 309.308 122.455 308.955 122.455C308.54 122.455 308.187 122.341 307.896 122.112C307.564 121.655 307.398 121.115 307.398 120.492Z" fill="#FF6C5C"/>
<path d="M289.13 133.857C289.13 132.84 289.349 131.843 289.785 130.867C290.242 129.87 290.875 128.956 291.685 128.125C292.495 127.294 293.554 126.619 294.863 126.1C296.192 125.581 297.656 125.321 299.256 125.321C299.754 125.321 300.138 125.332 300.408 125.352L300.657 124.574C301.281 124.449 301.883 124.387 302.464 124.387C303.607 124.387 304.718 124.729 305.798 125.415C305.922 126.412 305.985 127.17 305.985 127.689C305.985 129.226 305.684 130.119 305.081 130.368C304.5 130.597 303.939 130.711 303.399 130.711C302.402 130.711 301.177 130.514 299.723 130.119L299.91 128.904C299.494 128.862 299.162 128.842 298.913 128.842C297.397 128.842 296.078 129.267 294.956 130.119C293.855 130.95 293.305 132.154 293.305 133.733C293.305 135.062 293.689 136.049 294.458 136.692C295.247 137.336 296.182 137.658 297.262 137.658C297.906 137.658 298.747 137.523 299.785 137.253L299.692 136.132C300.73 135.446 301.997 135.104 303.492 135.104C303.908 135.104 304.396 135.156 304.957 135.259C305.725 136.215 306.109 137.316 306.109 138.562C306.109 139.081 306.037 139.901 305.891 141.023C305.019 141.729 303.814 142.082 302.277 142.082C301.862 142.082 301.384 142.061 300.844 142.02L300.502 141.521C299.899 141.584 299.318 141.615 298.757 141.615C295.932 141.615 293.617 140.857 291.81 139.341C290.024 137.804 289.13 135.976 289.13 133.857Z" fill="#FF6C5C"/>
<path d="M269.935 134.792C269.935 133.297 270.153 131.853 270.589 130.462C271.046 129.049 271.763 127.834 272.739 126.817C273.736 125.799 274.899 125.29 276.228 125.29C276.831 125.29 277.36 125.394 277.817 125.602C278.295 125.809 278.658 126.069 278.907 126.38C279.177 126.671 279.396 126.972 279.562 127.284C279.728 127.575 279.842 127.824 279.904 128.032C279.967 128.239 280.008 128.343 280.029 128.343C280.029 127.222 280.019 126.484 279.998 126.131C280.413 125.778 280.839 125.55 281.275 125.446C281.732 125.321 282.355 125.259 283.144 125.259C283.768 125.259 284.318 125.28 284.796 125.321C285.294 125.363 285.668 125.415 285.917 125.477C286.166 125.539 286.364 125.602 286.509 125.664C286.675 125.726 286.779 125.768 286.821 125.789L286.883 125.82C286.966 126.007 287.008 126.588 287.008 127.564C287.008 128.561 286.966 129.153 286.883 129.34C286.821 129.485 286.488 129.62 285.886 129.745C285.284 129.849 284.764 129.901 284.328 129.901C284.121 129.901 283.892 129.88 283.643 129.839C283.705 129.963 283.736 130.493 283.736 131.427C283.736 134.148 283.643 135.654 283.456 135.945C283.601 135.882 283.778 135.851 283.986 135.851C284.899 135.851 285.793 135.945 286.665 136.132C286.831 136.256 286.914 137.139 286.914 138.78C286.914 139.694 286.883 140.275 286.821 140.524C286.675 140.753 286.218 140.971 285.45 141.179C284.681 141.386 283.809 141.49 282.833 141.49C281.068 141.49 279.977 141.449 279.562 141.366C279.416 140.971 279.344 140.639 279.344 140.369C279.344 140.202 279.375 140.078 279.437 139.995C279.188 140.078 278.482 140.389 277.319 140.929C276.156 141.469 275.314 141.739 274.795 141.739C273.196 141.739 271.981 141.064 271.15 139.714C270.34 138.364 269.935 136.724 269.935 134.792ZM273.829 133.982C273.829 135.145 274.182 136.132 274.889 136.942C275.616 137.731 276.374 138.126 277.163 138.126C277.599 138.126 278.097 138.011 278.658 137.783C279.219 137.554 279.52 137.347 279.562 137.16C279.624 136.204 279.676 135.332 279.717 134.543C279.78 133.733 279.821 133.12 279.842 132.705C279.884 132.269 279.904 131.988 279.904 131.864V131.49C279.904 131.054 279.614 130.628 279.032 130.212C278.471 129.776 277.838 129.558 277.132 129.558C276.093 129.558 275.283 130.036 274.702 130.991C274.12 131.926 273.829 132.923 273.829 133.982Z" fill="#FF6C5C"/>
<path d="M254.575 127.627C254.575 126.775 254.637 126.173 254.762 125.82C255.945 125.467 257.098 125.29 258.22 125.29C259.57 125.29 260.608 125.57 261.335 126.131C261.314 126.484 261.304 127.014 261.304 127.72L261.429 127.471C261.491 127.305 261.605 127.107 261.771 126.879C261.958 126.63 262.176 126.391 262.425 126.162C262.675 125.913 263.028 125.705 263.485 125.539C263.942 125.373 264.45 125.29 265.011 125.29C266.59 125.29 267.929 125.965 269.03 127.315C268.885 128.229 268.521 128.925 267.94 129.402C267.358 129.88 266.777 130.14 266.195 130.181C265.427 129.641 264.689 129.371 263.983 129.371C261.927 129.371 260.899 130.68 260.899 133.297C260.899 134.19 261.013 135.166 261.242 136.225C261.283 136.121 261.574 136.069 262.114 136.069C262.737 136.069 263.121 136.142 263.267 136.287C263.516 136.682 263.64 137.326 263.64 138.219C263.64 139.569 263.402 140.452 262.924 140.867C261.865 141.095 260.587 141.21 259.092 141.21C256.641 141.21 255.218 140.981 254.824 140.524C254.762 140.275 254.73 139.642 254.73 138.624C254.73 137.17 254.793 136.391 254.917 136.287C255.063 136.1 255.468 136.007 256.132 136.007C256.61 136.007 256.963 136.08 257.192 136.225C257.005 135.747 256.911 134.138 256.911 131.396C256.911 130.482 256.942 129.963 257.005 129.838C256.755 129.88 256.527 129.901 256.319 129.901C255.572 129.901 255.052 129.714 254.762 129.34C254.637 129.028 254.575 128.457 254.575 127.627Z" fill="#FF6C5C"/>
<path d="M231.675 123.265C231.675 121.832 231.82 120.679 232.111 119.807C232.506 119.786 233.347 119.745 234.634 119.682C235.922 119.599 237.21 119.537 238.497 119.495C239.806 119.454 241.135 119.433 242.485 119.433C243.835 119.433 245.175 119.454 246.504 119.495C247.833 119.537 249.173 119.599 250.523 119.682C251.894 119.745 252.766 119.786 253.14 119.807C253.431 120.679 253.576 121.832 253.576 123.265C253.576 124.013 253.503 124.667 253.358 125.228C252.32 125.435 251.582 125.539 251.146 125.539C250.232 125.539 249.464 125.363 248.841 125.01L248.311 123.39C248.041 123.224 246.868 123.109 244.791 123.047C244.915 125.705 244.978 128.468 244.978 131.334C244.978 133.577 244.863 135.301 244.635 136.506C244.739 136.506 244.978 136.537 245.351 136.599C245.891 136.682 246.255 136.776 246.442 136.879C246.566 137.046 246.629 137.679 246.629 138.78C246.629 139.59 246.556 140.119 246.411 140.369C246.078 140.95 244.822 141.241 242.641 141.241C240.439 141.241 239.172 140.95 238.84 140.369C238.695 140.119 238.622 139.579 238.622 138.749C238.622 137.669 238.684 137.046 238.809 136.879C238.996 136.776 239.359 136.682 239.899 136.599C240.273 136.537 240.512 136.506 240.616 136.506C240.388 135.301 240.273 133.577 240.273 131.334C240.273 128.468 240.336 125.705 240.46 123.047C238.383 123.109 237.21 123.224 236.94 123.39L236.41 125.01C235.787 125.363 235.019 125.539 234.105 125.539C233.669 125.539 232.931 125.435 231.893 125.228C231.747 124.667 231.675 124.013 231.675 123.265Z" fill="#FF6C5C"/>
<path d="M219.982 138.749C219.982 138.022 220.21 137.326 220.667 136.661C221.249 136.495 221.664 136.412 221.914 136.412C222.308 136.412 222.713 136.495 223.129 136.661C223.565 137.326 223.783 138.053 223.783 138.842C223.783 139.611 223.565 140.379 223.129 141.147C222.796 141.314 222.433 141.397 222.038 141.397C221.644 141.397 221.187 141.314 220.667 141.147C220.21 140.337 219.982 139.538 219.982 138.749Z" fill="#FF6C5C"/>
<path d="M200.34 146.849C200.34 145.873 200.382 145.291 200.465 145.104C201.088 144.73 202.158 144.543 203.674 144.543C203.923 144.543 204.089 144.554 204.172 144.574C204.172 143.515 204.152 141.906 204.11 139.746C204.068 137.586 204.048 135.955 204.048 134.854C204.048 133.214 204.068 131.978 204.11 131.147C203.965 131.23 203.591 131.272 202.988 131.272C201.805 131.272 201.046 131.168 200.714 130.96C200.548 130.835 200.465 129.953 200.465 128.312C200.465 127.398 200.496 126.817 200.558 126.567C200.953 125.924 202.075 125.602 203.923 125.602C205.896 125.602 207.09 125.643 207.506 125.726C207.61 126.121 207.662 126.484 207.662 126.817C207.662 126.983 207.651 127.076 207.63 127.097C207.942 126.993 208.607 126.682 209.624 126.162C210.663 125.622 211.442 125.352 211.961 125.352C213.165 125.352 214.214 125.809 215.107 126.723C216.021 127.616 216.675 128.665 217.07 129.87C217.465 131.074 217.662 132.279 217.662 133.484C217.662 135.602 217.039 137.482 215.793 139.122C214.567 140.742 212.906 141.552 210.808 141.552C210.06 141.552 209.25 141.428 208.378 141.179C208.378 141.22 208.388 141.625 208.409 142.394C208.451 143.183 208.472 144.014 208.472 144.886C208.472 146.818 208.42 147.887 208.316 148.095C207.589 148.718 206 149.029 203.549 149.029C203.03 149.029 202.563 149.009 202.147 148.967C201.732 148.926 201.42 148.874 201.213 148.811C201.026 148.749 200.87 148.687 200.745 148.624C200.621 148.562 200.548 148.51 200.527 148.469L200.465 148.438C200.382 148.251 200.34 147.721 200.34 146.849ZM208.067 130.68C208.087 131.552 208.108 132.455 208.129 133.39C208.15 134.325 208.16 135.041 208.16 135.54C208.181 136.038 208.202 136.422 208.222 136.692C208.222 137.066 208.492 137.44 209.032 137.814C209.572 138.188 210.175 138.375 210.839 138.375C211.545 138.375 212.127 138.115 212.584 137.596C213.062 137.056 213.373 136.474 213.519 135.851C213.685 135.207 213.768 134.553 213.768 133.889C213.768 132.559 213.435 131.51 212.771 130.742C212.127 129.953 211.41 129.558 210.621 129.558C210.123 129.558 209.572 129.704 208.97 129.994C208.368 130.264 208.067 130.493 208.067 130.68Z" fill="#FF6C5C"/>
<path d="M181.584 134.792C181.584 133.297 181.802 131.853 182.238 130.462C182.695 129.049 183.412 127.834 184.388 126.817C185.385 125.799 186.548 125.29 187.877 125.29C188.48 125.29 189.009 125.394 189.466 125.602C189.944 125.809 190.307 126.069 190.556 126.38C190.826 126.671 191.045 126.972 191.211 127.284C191.377 127.575 191.491 127.824 191.553 128.032C191.616 128.239 191.657 128.343 191.678 128.343C191.678 127.222 191.668 126.484 191.647 126.131C192.062 125.778 192.488 125.55 192.924 125.446C193.381 125.321 194.004 125.259 194.793 125.259C195.416 125.259 195.967 125.28 196.445 125.321C196.943 125.363 197.317 125.415 197.566 125.477C197.815 125.539 198.013 125.602 198.158 125.664C198.324 125.726 198.428 125.768 198.47 125.789L198.532 125.82C198.615 126.007 198.657 126.588 198.657 127.564C198.657 128.561 198.615 129.153 198.532 129.34C198.47 129.485 198.137 129.62 197.535 129.745C196.933 129.849 196.413 129.901 195.977 129.901C195.77 129.901 195.541 129.88 195.292 129.839C195.354 129.963 195.385 130.493 195.385 131.427C195.385 134.148 195.292 135.654 195.105 135.945C195.25 135.882 195.427 135.851 195.635 135.851C196.548 135.851 197.442 135.945 198.314 136.132C198.48 136.256 198.563 137.139 198.563 138.78C198.563 139.694 198.532 140.275 198.47 140.524C198.324 140.753 197.867 140.971 197.099 141.179C196.33 141.386 195.458 141.49 194.482 141.49C192.716 141.49 191.626 141.449 191.211 141.366C191.065 140.971 190.993 140.639 190.993 140.369C190.993 140.202 191.024 140.078 191.086 139.995C190.837 140.078 190.131 140.389 188.968 140.929C187.805 141.469 186.963 141.739 186.444 141.739C184.845 141.739 183.63 141.064 182.799 139.714C181.989 138.364 181.584 136.724 181.584 134.792ZM185.478 133.982C185.478 135.145 185.831 136.132 186.538 136.942C187.265 137.731 188.023 138.126 188.812 138.126C189.248 138.126 189.746 138.011 190.307 137.783C190.868 137.554 191.169 137.347 191.211 137.16C191.273 136.204 191.325 135.332 191.366 134.543C191.429 133.733 191.47 133.12 191.491 132.705C191.533 132.269 191.553 131.988 191.553 131.864V131.49C191.553 131.054 191.263 130.628 190.681 130.212C190.12 129.776 189.487 129.558 188.781 129.558C187.742 129.558 186.932 130.036 186.351 130.991C185.769 131.926 185.478 132.923 185.478 133.982Z" fill="#FF6C5C"/>
<path d="M161 123.265C161 121.832 161.145 120.679 161.436 119.807C161.831 119.786 162.672 119.745 163.96 119.682C165.247 119.599 166.535 119.537 167.823 119.495C169.131 119.454 170.46 119.433 171.81 119.433C173.16 119.433 174.5 119.454 175.829 119.495C177.159 119.537 178.498 119.599 179.848 119.682C181.219 119.745 182.091 119.786 182.465 119.807C182.756 120.679 182.901 121.832 182.901 123.265C182.901 124.013 182.829 124.667 182.683 125.228C181.645 125.435 180.907 125.539 180.471 125.539C179.557 125.539 178.789 125.363 178.166 125.01L177.636 123.39C177.366 123.224 176.193 123.109 174.116 123.047C174.24 125.705 174.303 128.468 174.303 131.334C174.303 133.577 174.189 135.301 173.96 136.506C174.064 136.506 174.303 136.537 174.677 136.599C175.217 136.682 175.58 136.776 175.767 136.879C175.892 137.046 175.954 137.679 175.954 138.78C175.954 139.59 175.881 140.119 175.736 140.369C175.404 140.95 174.147 141.241 171.966 141.241C169.765 141.241 168.498 140.95 168.165 140.369C168.02 140.119 167.947 139.579 167.947 138.749C167.947 137.669 168.01 137.046 168.134 136.879C168.321 136.776 168.685 136.682 169.225 136.599C169.599 136.537 169.837 136.506 169.941 136.506C169.713 135.301 169.599 133.577 169.599 131.334C169.599 128.468 169.661 125.705 169.785 123.047C167.709 123.109 166.535 123.224 166.265 123.39L165.735 125.01C165.112 125.363 164.344 125.539 163.43 125.539C162.994 125.539 162.257 125.435 161.218 125.228C161.073 124.667 161 124.013 161 123.265Z" fill="#FF6C5C"/>
</svg>
